<svg xmlns="http://www.w3.org/2000/svg" width="600" height="777.642" viewBox="0 0 600 777.642"><path d="M300.046 444.644c122.769 0 222.276-99.553 222.276-222.322 0-19.984-2.63-39.37-7.615-57.83l-106.384 28.661-108.277 29.17 20.677 72.137 78.6-19.938c-18.785 35.63-56.17 59.954-99.277 59.954-61.938 0-112.2-50.216-112.2-112.154s50.262-112.153 112.2-112.153V0C177.277 0 77.724 99.554 77.724 222.322s99.553 222.322 222.322 222.322zM94.72 592.73c10.966 0 18.723-4.188 24.875-11.232v-26.3H92.848v10.52h15.96v11.056c-4.904 3.921-9.183 4.99-14.087 4.99-15.514 0-21.488-10.61-21.488-20.86 0-12.84 8.115-23.004 21.488-23.004 5.438 0 11.68 2.23 15.87 6.242l7.31-7.49c-6.418-6.329-14.799-9.538-23.18-9.538-22.022 0-32.988 16.226-32.988 33.79 0 16.402 9.54 31.826 32.988 31.826zm85.876-43.152c0-10.786-7.757-20.594-22.469-20.684-9.895 0-19.79-.09-29.689-.09v62.501h11.769v-20.863h11.324l18.189 20.863h13.997v-.802l-18.901-21.31c11.856-2.407 15.78-11.056 15.78-19.615zm-22.469 10.254h-17.92V539.86h17.92c7.401 0 10.7 4.994 10.7 9.988 0 4.99-3.209 9.984-10.7 9.984zm76.958-19.526v-11.412h-46.72v62.411h46.72v-11.592h-35.039v-14.085h33.79v-10.966h-33.79v-14.356h35.04zm23.643 8.916l32.81 42.174v-.09h7.313v-62.502h-11.77v38.785L256.5 528.894h-9.54v62.411h11.769v-42.083zm49.056 11.322c0 16.406 10.164 32.186 32.096 32.186 21.932 0 31.83-16.136 32.005-32.272.18-16.316-10.52-32.812-32.005-32.812-21.576 0-32.096 16.496-32.096 32.898zm52.513.09c-.18 10.254-5.706 21.31-20.417 21.31-14.712 0-20.242-10.966-20.508-21.22-.266-10.52 5.796-22.378 20.508-22.378 14.711 0 20.593 11.768 20.417 22.288zm70.989-13.639c0-12.57-9.186-18.1-21.486-18.1h-29.603v62.41H409.8c12.927 0 23.356-4.457 23.356-18.366 0-3.922-2.673-11.679-9.983-13.91 5.791-2.582 8.113-7.22 8.113-12.034zm-39.497-7.4h18.01c7.487 0 9.804 4.813 9.804 7.666 0 3.565-2.407 6.689-9.803 6.689h-18.01v-14.356zm18.01 40.744h-18.01v-16.05h18.01c4.815 0 11.679 2.943 11.679 8.56 0 5.886-6.864 7.49-11.678 7.49zm31.664-51.445v62.411h43.868V580.43h-32.1v-51.536h-11.768zm98.712 11.412v-11.412h-46.717v62.411h46.717v-11.592h-35.039v-14.085h33.79v-10.966h-33.79v-14.356h35.039zm-417.794 93.051v-11.412h-46.72v62.411h46.72v-11.592h-35.04v-14.085h33.791v-10.966h-33.79v-14.356h35.039zm40.402 52.424c9.005 0 17.296-2.939 23.717-9.272l-8.025-8.113c-4.102 4.102-10.254 6.333-15.692 6.333-15.424 0-21.398-10.79-21.488-21.134-.088-10.43 6.42-21.662 21.488-21.662 5.438 0 10.966 1.87 15.068 5.882l7.847-7.577c-6.42-6.332-14.446-9.541-22.915-9.541-22.556 0-33.166 16.586-33.078 32.898.09 16.23 9.898 32.186 33.078 32.186zm59.664 0c21.932 0 31.828-16.136 32.008-32.272.178-16.316-10.522-32.812-32.008-32.812-21.576 0-32.098 16.496-32.098 32.898 0 16.406 10.164 32.186 32.098 32.186zm0-54.384c14.71 0 20.596 11.768 20.415 22.288-.178 10.254-5.706 21.31-20.415 21.31-14.711 0-20.24-10.966-20.508-21.22-.266-10.52 5.797-22.378 20.508-22.378zm84.54 42.084h-32.099v-51.536h-11.768v62.411h43.866v-10.875zm54.847-.717h-35.039v-14.085h33.79v-10.966h-33.79v-14.356h35.04v-11.412h-46.722v62.411h46.721v-11.592zM33.078 740.732l-19.525-26.835H0v62.41h11.768v-45.382l19.884 27.192h2.316l20.33-27.102v45.293h11.768v-62.411H52.603l-19.525 26.835zm61.183-26.926l-27.996 62.412h12.748l5.35-11.769h32.633l5.26 11.769h12.838L107.1 713.806H94.261zm-5.172 39.677l11.59-26.57 11.59 26.57H89.09zm127.617-39.677l-27.922 62.246v-62.336h-11.77v38.785l-30.582-38.695h-9.54v62.412h11.769v-42.084l32.81 42.174v-.09h19.99l5.347-11.769h32.632l5.262 11.769h12.837l-27.994-62.412h-12.84zm-5.172 39.677l11.59-26.57 11.59 26.57h-23.18zm72.678-2.853h15.96v11.056c-4.903 3.922-9.185 4.99-14.09 4.99-15.508 0-21.485-10.61-21.485-20.86 0-12.84 8.113-23.004 21.486-23.004 5.44 0 11.683 2.23 15.874 6.242l7.31-7.49c-6.422-6.329-14.8-9.538-23.184-9.538-22.018 0-32.988 16.226-32.988 33.79 0 16.402 9.541 31.826 32.988 31.826 10.97 0 18.727-4.187 24.875-11.232v-26.3h-26.746v10.52zm31.758 25.588h46.717v-11.593h-35.039V750.54h33.79v-10.966h-33.79v-14.355h35.04v-11.413H315.97v62.412zm84.533-35.486l-19.526-26.835h-13.553v62.41h11.769v-45.382l19.88 27.192h2.322l20.327-27.102v45.293h11.769v-62.411h-13.463l-19.525 26.835zm39.428 35.486h46.718v-11.593h-35.04V750.54H485.4v-10.966h-33.79v-14.355h35.039v-11.413H439.93v62.412zm94.255-23.717l-30.581-38.695h-9.542v62.412h11.768v-42.084l32.813 42.174v-.09h7.31v-62.502h-11.768v38.785zm14.459-38.695v10.7h19.796v51.712h11.768v-51.712H600v-10.7h-51.355zm-83.789-61.19c-.27-15.423-9.807-30.67-31.208-30.67h-24.514v62.41h24.514c21.847 0 31.474-15.96 31.208-31.74zm-31.208 20.418h-12.836v-39.942h12.836c13.554 0 19.26 9.717 19.526 19.435.27 10.163-5.346 20.507-19.526 20.507zm85.52-39.677v-11.412h-46.722v62.411h46.722v-11.592h-35.039v-14.085h33.79v-10.966h-33.79v-14.356h35.039z"/></svg>